<svg class="canvas" version="1.1" xmlns="http://www.w3.org/2000/svg" xmlns:xlink="http://www.w3.org/1999/xlink" width="100%" height="100%"><defs class="[object Object]"></defs><g class="logo-entity" id="symbol" transform="translate(520.5635986328125, 0.9999618530273438) scale(1.6)"><g class="logo-entity-inner"><g class="[object Object]" data-noun-id="39539" data-attribution="" transform="scale(1.2094708417426892)"><g><g><path fill="#000000" d="M42.033,42.164c1.632,0.946,4.301,0.946,5.933-0.001l29.815-17.302c1.632-0.947,1.63-2.493-0.004-3.437    L47.97,4.214c-1.633-0.943-4.306-0.943-5.94,0L12.214,21.429c-1.634,0.943-1.635,2.489-0.003,3.436L42.033,42.164z" transform="translate(-7.872000694274902,-3.5067501068115234)"></path></g><g><path fill="#000000" d="M43.714,49.542c0-1.887-1.335-4.204-2.967-5.151l-29.908-17.35c-1.632-0.947-2.967-0.178-2.967,1.708    v34.628c0,1.887,1.336,4.201,2.97,5.145l29.901,17.263c1.634,0.943,2.97,0.172,2.97-1.715V49.542z" transform="translate(-7.872000694274902,-3.5067501068115234)"></path></g><g><path fill="#000000" d="M49.253,44.391c-1.632,0.947-2.967,3.265-2.967,5.151V84.07c0,1.887,1.337,2.658,2.971,1.715    l29.899-17.263c1.634-0.943,2.971-3.258,2.971-5.145V28.742c0-1.886-1.335-2.655-2.967-1.708L49.253,44.391z" transform="translate(-7.872000694274902,-3.5067501068115234)"></path></g></g></g></g></g><g class="logo-entity" id="title" transform="translate(269.7000732421875, 170.9999771118164) scale(1)"><g class="logo-entity-inner"><text class="[object Object]" font-size="80px" dominant-baseline="text-before-edge" alignment-baseline="text-before-edge" fill="#000000" font-family="Montserrat">CloudClassUtility</text></g></g></svg>
